# ProBuilder 4.4.0
# https://unity3d.com/unity/features/worldbuilding/probuilder
# 2021-01-30 18:35:42

mtllib ./Table.mtl
o Table

g Table
v -1.393429 0.978 0
v -1.486523 0.978 0
v -1.486523 1.02825 0
v -1.393429 1.02825 0
v -1.486523 0.978 -1
v -1.393429 0.978 -1
v -1.393429 1.02825 -1
v -1.486523 1.02825 -1
v 0 0.978 0
v -0.09500504 0.978 0
v -0.09500504 1.02825 0
v 0 1.02825 0
v 0 0.978 -1
v 0 1.02825 -1
v -0.09500504 1.02825 -1
v -0.09500504 0.978 -1
v -1.486523 0.978 -0.9020082
v -1.486523 1.02825 -0.9020082
v 0 0.978 -0.9020082
v 0 1.02825 -0.9020082
v -1.393429 1.02825 -0.9020082
v -1.393429 0.005047619 -0.9020082
v -1.393429 0.005047619 -1
v -1.486523 0.005047619 -1
v -1.486523 0.005047619 -0.9020082
v -0.09500504 1.02825 -0.9020082
v -1.393429 0.978 -0.9020082
v -0.09500504 0.978 -0.9020082
v -0.09500504 0.005047619 -1
v -0.09500504 0.005047619 -0.9020082
v 0 0.005047619 -0.9020082
v 0 0.005047619 -1
v -1.486523 0.978 -0.09793377
v -1.486523 1.02825 -0.09793377
v 0 1.02825 -0.09793377
v 0 0.978 -0.09793377
v -1.393429 1.02825 -0.09793377
v -1.393429 0.978 -0.09793377
v -1.486523 0.005047619 -0.09793377
v -1.486523 0.005047619 0
v -1.393429 0.005047619 0
v -1.393429 0.005047619 -0.09793377
v -0.09500504 1.02825 -0.09793377
v -0.09500504 0.978 -0.09793377
v -0.09500504 0.005047619 -0.09793377
v -0.09500504 0.005047619 0
v 0 0.005047619 0
v 0 0.005047619 -0.09793377

vt -1.393429 0
vt -1.486523 0
vt -1.486523 0.05024958
vt -1.393429 0.05024958
vt 1.486523 0
vt 1.393429 0
vt 1.393429 0.05024958
vt 1.486523 0.05024958
vt 0 0
vt -0.09500504 0
vt -0.09500504 0.05024958
vt 0 0.05024958
vt 0.09500504 0.05024958
vt 0.09500504 0
vt -0.9020082 0
vt -1 0
vt -1 0.05024958
vt -0.9020082 0.05024958
vt 1 0
vt 0.9020082 0
vt 0.9020082 0.05024958
vt 1 0.05024958
vt 1.486523 -1
vt 1.393429 -1
vt 1.393429 -0.9020082
vt 1.486523 -0.9020082
vt -1.393429 -0.9020082
vt -1.393429 -1
vt -1.486523 -1
vt -1.486523 -0.9020082
vt 0.09500504 -1
vt 0.09500504 -0.9020082
vt 0 -1
vt 0 -0.9020082
vt -0.09500504 -0.9020082
vt -0.09500504 -1
vt -0.09793377 0
vt -0.09793377 0.05024958
vt 0.09793377 0.05024958
vt 0.09793377 0
vt 1.393429 -0.09793377
vt 1.486523 -0.09793377
vt -1.486523 -0.09793377
vt -1.393429 -0.09793377
vt 0.09500504 -0.09793377
vt 0 -0.09793377
vt -0.09500504 -0.09793377
vt -1 -0.9729524
vt -0.9020082 -0.9729524
vt -1.486523 -0.9729524
vt -1.393429 -0.9729524
vt 0.9020082 -0.9729524
vt 1 -0.9729524
vt 1.393429 -0.9729524
vt 1.486523 -0.9729524
vt -0.09793377 -0.9729524
vt 0 -0.9729524
vt 0.09793377 -0.9729524
vt -0.09500504 -0.9729524
vt 0.09500504 -0.9729524

vn 0 0 1
vn 0 0 -1
vn -1 0 0
vn 1 0 0
vn 0 1 0
vn 0 -1 0

usemtl TableMaterial
f 4/4/1 3/3/1 2/2/1 1/1/1
f 5/5/2 8/8/2 7/7/2 6/6/2
f 12/12/1 11/11/1 10/10/1 9/9/1
f 11/11/1 4/4/1 1/1/1 10/10/1
f 16/14/2 15/13/2 14/12/2 13/9/2
f 6/6/2 7/7/2 15/13/2 16/14/2
f 18/18/3 8/17/3 5/16/3 17/15/3
f 13/19/4 14/22/4 20/21/4 19/20/4
f 18/26/5 21/25/5 7/24/5 8/23/5
f 23/28/6 22/27/6 25/30/6 24/29/6
f 21/25/5 26/32/5 15/31/5 7/24/5
f 26/32/5 20/34/5 14/33/5 15/31/5
f 16/36/6 28/35/6 27/27/6 6/28/6
f 32/33/6 31/34/6 30/35/6 29/36/6
f 3/12/3 34/38/3 33/37/3 2/9/3
f 34/38/3 18/18/3 17/15/3 33/37/3
f 36/40/4 35/39/4 12/12/4 9/9/4
f 19/20/4 20/21/4 35/39/4 36/40/4
f 34/42/5 37/41/5 21/25/5 18/26/5
f 3/5/5 4/6/5 37/41/5 34/42/5
f 27/27/6 38/44/6 33/43/6 17/30/6
f 42/44/6 41/1/6 40/2/6 39/43/6
f 37/41/5 43/45/5 26/32/5 21/25/5
f 4/6/5 11/14/5 43/45/5 37/41/5
f 43/45/5 35/46/5 20/34/5 26/32/5
f 11/14/5 12/9/5 35/46/5 43/45/5
f 27/27/6 28/35/6 44/47/6 38/44/6
f 38/44/6 44/47/6 10/10/6 1/1/6
f 19/34/6 36/46/6 44/47/6 28/35/6
f 48/46/6 47/9/6 46/10/6 45/47/6
f 24/48/3 25/49/3 17/15/3 5/16/3
f 25/50/1 22/51/1 27/1/1 17/2/1
f 22/52/4 23/53/4 6/19/4 27/20/4
f 23/54/2 24/55/2 5/5/2 6/6/2
f 39/56/3 40/57/3 2/9/3 33/37/3
f 40/50/1 41/51/1 1/1/1 2/2/1
f 41/57/4 42/58/4 38/40/4 1/9/4
f 42/54/2 39/55/2 33/5/2 38/6/2
f 45/56/3 46/57/3 10/9/3 44/37/3
f 46/59/1 47/57/1 9/9/1 10/10/1
f 47/57/4 48/58/4 36/40/4 9/9/4
f 48/57/2 45/60/2 44/14/2 36/9/2
f 29/48/3 30/49/3 28/15/3 16/16/3
f 30/59/1 31/57/1 19/9/1 28/10/1
f 31/52/4 32/53/4 13/19/4 19/20/4
f 32/57/2 29/60/2 16/14/2 13/9/2

