# ProBuilder 4.4.0
# https://unity3d.com/unity/features/worldbuilding/probuilder
# 2021-01-30 12:41:17

mtllib ./CorridorWindow.mtl
o CorridorWindow

g Mesh
v -2.5 4.696754 2.251462
v -2.5 5 2.251462
v -2.5 5 2.5
v -2.5 4.696754 2.5
v 2.5 4.696754 2.5
v 2.5 5 2.5
v 2.5 5 2.251462
v 2.5 4.696754 2.251462
v -2.5 0 2.5
v -2.5 0 2.251462
v -2.5 0.3341191 2.251462
v -2.5 0.3341191 2.5
v 2.5 0.3341191 2.251462
v 2.5 0 2.251462
v 2.5 0 2.5
v 2.5 0.3341191 2.5
v 2.5 4.696754 -4.502851
v 2.5 5 -4.502851
v -2.5 5 -4.502851
v -2.5 4.696754 -4.502851
v 2.5 0 -4.502851
v 2.5 0.3341191 -4.502851
v -2.5 0.3341191 -4.502851
v -2.5 0 -4.502851
v 2.278996 5 2.5
v 0.947003 0 2.5
v 2.278996 0 2.5
v 2.278996 0 2.251462
v 2.278996 4.696754 2.5
v 0.947003 4.696754 2.5
v 0.947003 5 2.5
v 2.278996 5 -4.502851
v 2.278996 4.696754 -4.502851
v 0.947003 5 -4.502851
v 0.947003 4.696754 -4.502851
v 2.278996 0.3341193 2.5
v 0.947003 0.3341193 2.5
v 2.278996 0.3341193 -4.502851
v 2.278996 0 -4.502851
v 0.947003 0.3341193 -4.502851
v 0.947003 0 -4.502851
v 0.947003 5 2.251462
v 2.278996 5 2.251462
v 0.947003 4.696754 2.251462
v 2.278996 4.696754 2.251462
v 0.947003 0.3341193 2.251462
v 2.278996 0.3341193 2.251462
v 0.947003 0 2.251462
v -2.278996 5 2.5
v -0.9614313 5 2.5
v -2.278996 0 2.5
v -2.278996 0 2.251462
v -0.9614313 0 2.5
v -0.9614313 4.696754 2.5
v -2.278996 4.696754 2.5
v -2.278996 5 -4.502851
v -2.278996 4.696754 -4.502851
v -2.278996 0.3341193 2.5
v -0.9614313 0.3341191 2.5
v -2.278996 0.3341193 -4.502851
v -2.278996 0 -4.502851
v -2.278996 5 2.251462
v -2.278996 4.696754 2.251462
v -2.278996 0.3341193 2.251462
v -0.9614313 0 2.251462
v -0.9614313 0 -4.502851
v 0.7259991 5 2.5
v 0 0 2.251462
v 0 0 2.5
v 0.7259991 0 2.5
v 0.7259991 0 2.251462
v 0.7259991 4.696754 2.5
v 0 4.696754 2.5
v 0 5 2.5
v 0.7259991 5 -4.502851
v 0.7259991 4.696754 -4.502851
v 0 5 -4.502851
v 0 4.696754 -4.502851
v 0.7259991 0.3341193 2.5
v 0 0.3341191 2.5
v 0.7259991 0.3341193 -4.502851
v 0.7259991 0 -4.502851
v 0 0.3341191 -4.502851
v 0 0 -4.502851
v 0 5 2.251462
v 0.7259991 5 2.251462
v 0 4.696754 2.251462
v 0.7259991 4.696754 2.251462
v 0 0.3341191 2.251462
v 0.7259991 0.3341193 2.251462
v -0.7259989 5 2.5
v -0.7259989 0 2.5
v -0.7259989 4.696754 2.5
v -0.7259989 5 -4.502851
v -0.7259989 4.696754 -4.502851
v -0.9614313 5 -4.502851
v -0.9614313 4.696754 -4.502851
v -0.7259989 0.3341193 2.5
v -0.7259989 0.3341193 -4.502851
v -0.7259989 0 -4.502851
v -0.9614313 0.3341191 -4.502851
v -0.9614313 5 2.251462
v -0.7259989 5 2.251462
v -0.9614313 4.696754 2.251462
v -0.7259989 4.696754 2.251462
v -0.9614313 0.3341191 2.251462
v -0.7259989 0.3341193 2.251462
v -0.7259989 0 2.251462
v -2.5 1.169453 2.251462
v -2.5 1.169453 2.5
v 2.5 1.169453 2.5
v 2.5 1.169453 2.251462
v 2.278996 1.169453 2.5
v 0.947003 1.169453 2.5
v 2.278996 1.169453 2.251462
v 0.947003 1.169453 2.380227
v -2.278996 1.169453 2.5
v -0.9614313 1.169452 2.5
v -0.9614313 1.169452 2.380227
v -2.278996 1.169453 2.251462
v 0.7259991 1.169453 2.5
v 0 1.169453 2.5
v 0.7259991 1.169453 2.380227
v 0 1.169453 2.385543
v -0.7259989 1.169453 2.5
v -0.7259989 1.169453 2.380227
v -2.5 4.332662 2.251462
v -2.5 4.332662 2.5
v 2.5 4.332662 2.251462
v 2.5 4.332662 2.5
v 2.278996 4.332662 2.5
v 0.947003 4.332662 2.5
v 2.278996 4.332662 2.251462
v 0.947003 4.332662 2.380227
v -0.9614313 4.332661 2.5
v -2.278996 4.332662 2.5
v -2.278996 4.332662 2.251462
v -0.9614313 4.332661 2.380227
v 0.7259991 4.332662 2.5
v 0 4.332662 2.5
v 0.7259991 4.332662 2.380227
v 0 4.332662 2.355524
v -0.7259989 4.332662 2.5
v -0.7259989 4.332662 2.380227

vt -0.2485377 4.696754
vt -0.2485377 5
vt 0 5
vt 0 4.696754
vt 0.2485377 5
vt 0.2485377 4.696754
vt 0 0
vt -0.2485377 0
vt -0.2485377 0.3341191
vt 0 0.3341191
vt 0.2485377 0.3341191
vt 0.2485377 0
vt 7.002851 4.696754
vt 7.002851 5
vt -7.002851 5
vt -7.002851 4.696754
vt 7.002851 0
vt 7.002851 0.3341191
vt -7.002851 0.3341191
vt -7.002851 0
vt 0.221004 0
vt -1.552997 0
vt -0.221004 0
vt 0 -0.2485377
vt -0.221004 -0.2485375
vt -0.221004 4.696754
vt -0.221004 5
vt -1.552997 4.696754
vt -1.552997 5
vt 0.221004 5
vt 0.221004 4.696754
vt 1.552997 5
vt 1.552997 4.696754
vt -0.221004 0.3341193
vt -1.552997 0.3341193
vt 0.221004 0.3341193
vt 1.552997 0.3341193
vt 1.552997 -2.377174E-12
vt 1.552997 -7.002851
vt 1.552997 -0.2485375
vt 0.221004 -7.002851
vt 0 -7.002851
vt 0.221004 -0.2485375
vt -1.552997 -7.002851
vt -1.552997 -0.2485375
vt -0.2210039 -7.002851
vt 4.778996 0
vt 5 0
vt 3.461431 0
vt -5 -0.2485377
vt -5 0
vt -4.778996 0
vt -4.778996 -0.2485375
vt -3.461431 0
vt -3.461431 4.696754
vt -4.778996 4.696754
vt -4.778996 5
vt -3.461431 5
vt -5 4.696754
vt -5 5
vt 4.778996 5
vt 5 5
vt 5 4.696754
vt 4.778996 4.696754
vt -4.778996 0.3341193
vt -3.461431 0.3341191
vt -5 0.3341191
vt 4.778996 0.3341193
vt 5 0.3341191
vt 5 -7.002851
vt 5 -0.2485377
vt 4.778996 -7.002851
vt 4.778996 -0.2485375
vt -5 -7.002851
vt -4.778996 -7.002851
vt -3.461431 -0.2485375
vt -3.461431 -7.002851
vt 1.774001 0
vt -2.5 -0.2485377
vt -2.5 0
vt -1.774001 0
vt -1.774001 -0.2485375
vt -1.774001 4.696754
vt -1.774001 5
vt -2.5 4.696754
vt -2.5 5
vt 1.774001 5
vt 1.774001 4.696754
vt 2.5 5
vt 2.5 4.696754
vt -1.774001 0.3341193
vt -2.5 0.3341191
vt 1.774001 0.3341193
vt 2.5 0.3341191
vt 2.5 -2.377174E-12
vt 2.5 -7.002851
vt 2.5 -0.2485377
vt 1.774001 -7.002851
vt 1.774001 -0.2485375
vt -2.5 -7.002851
vt -1.774001 -7.002851
vt 3.225999 0
vt -3.225999 0
vt -3.225999 4.696754
vt -3.225999 5
vt 3.225999 5
vt 3.225999 4.696754
vt 3.461431 5
vt 3.461431 4.696754
vt -3.225999 0.3341193
vt 3.225999 0.3341193
vt 3.461431 0.3341191
vt 3.461431 -7.002851
vt 3.461431 -0.2485375
vt 3.225999 -7.002851
vt 3.225999 -0.2485375
vt -3.225999 -0.2485375
vt -3.225999 -7.002851
vt -0.2485375 1.169453
vt 0 1.169453
vt 0.2485375 1.169453
vt -0.221004 1.169453
vt -1.552997 1.169453
vt 1.313873E-05 0.3415963
vt 1.313872E-05 1.176536
vt 0.2210172 1.176535
vt 0.2210172 0.3415962
vt 1.553003 1.172578
vt 1.55301 0.341594
vt -4.778996 1.169453
vt -3.461431 1.169452
vt -5 1.169453
vt 3.461444 0.3415907
vt 3.461438 1.172574
vt 4.779009 1.176528
vt 4.779009 0.3415888
vt 5.000013 1.176528
vt 5.000013 0.3415882
vt -1.774001 1.169453
vt -2.5 1.169453
vt 1.774007 1.172577
vt 1.774014 0.3415937
vt 2.500006 1.172413
vt 2.500013 0.3415923
vt -3.225999 1.169453
vt 3.226005 1.172575
vt 3.226012 0.3415913
vt -0.2485375 4.332662
vt 0 4.332662
vt 0.2485375 4.332662
vt -0.221004 4.332662
vt -1.552997 4.332662
vt 1.313873E-05 4.702172
vt 0.2210172 4.702172
vt 0.2210172 4.338251
vt 1.313872E-05 4.338252
vt 1.55301 4.702169
vt 1.553003 4.334293
vt -3.461431 4.332661
vt -4.778996 4.332662
vt -5 4.332662
vt 4.779009 4.702164
vt 4.779009 4.338244
vt 3.461438 4.33429
vt 3.461444 4.702166
vt 5.000013 4.338243
vt 5.000013 4.702164
vt -1.774001 4.332662
vt -2.5 4.332662
vt 1.774007 4.334293
vt 1.774014 4.702169
vt 2.500013 4.702168
vt 2.500008 4.335051
vt -3.225999 4.332662
vt 3.226012 4.702167
vt 3.226005 4.334291
vt 1.552997 -0.1197727
vt 1.774001 -0.1197727
vt 2.5 -0.1144567
vt 3.225999 -0.1197727
vt 3.461432 -0.1197727
vt -0.1197727 1.169452
vt -0.1197727 4.332661
vt -3.461434 -0.1197727
vt -2.5 -0.1444764
vt -3.225999 -0.1197727
vt -1.774001 -0.1197727
vt -1.552997 -0.1197727
vt 0.1197727 1.169453
vt 0.1197727 4.332662

vn -1 0 0
vn 1 0 0
vn 0 1 0
vn 0 -1 0
vn 0 0 1
vn 0 0 -1
vn -0.04811113 0.07617424 -0.9918433
vn -0.09622227 0 -0.9953599
vn 0 0.1523485 -0.9883268
vn 0.04863306 0.07617427 -0.9917927
vn 0.09726609 0 -0.9952585
vn -0.003618288 0.1554139 -0.9878314
vn -0.007236685 0.1523445 -0.988301
vn 1.100791E-07 0.1584833 -0.9873617
vn 0.003618289 0.1554139 -0.9878314
vn 0.007236687 0.1523445 -0.988301
vn -0.04538145 -0.1660232 -0.9694431
vn -0.09076291 -0.3320464 -0.9388862
vn 0.04587416 -0.166008 -0.9694006
vn 0.09174831 -0.3320159 -0.9388012
vn 0 -0.3334226 -0.9427775
vn 0.01603189 -0.3040287 -0.9518962
vn 1.578786E-07 -0.2748063 -0.9614996
vn 0.03206361 -0.3332512 -0.9422927
vn -0.01603189 -0.3040287 -0.9518962
vn -0.03206363 -0.3332512 -0.9422927

usemtl Lit
f 13/24/3 22/42/3 38/41/3
f 13/24/3 38/41/3 47/43/3
f 47/43/3 38/41/3 40/39/3
f 47/43/3 40/39/3 46/40/3
f 46/40/3 40/39/3 81/98/3
f 46/40/3 81/98/3 90/99/3
f 90/99/3 81/98/3 83/96/3
f 90/99/3 83/96/3 89/97/3
f 89/97/3 83/96/3 99/115/3
f 89/97/3 99/115/3 107/116/3
f 107/116/3 99/115/3 101/113/3
f 107/116/3 101/113/3 106/114/3
f 106/114/3 101/113/3 60/72/3
f 106/114/3 60/72/3 64/73/3
f 64/73/3 60/72/3 23/70/3
f 64/73/3 23/70/3 11/71/3
f 22/10/6 21/7/6 38/36/6
f 21/7/6 39/21/6 38/36/6
f 38/36/6 39/21/6 40/37/6
f 39/21/6 41/38/6 40/37/6
f 40/37/6 41/38/6 81/93/6
f 41/38/6 82/78/6 81/93/6
f 81/93/6 82/78/6 83/94/6
f 82/78/6 84/95/6 83/94/6
f 83/94/6 84/95/6 99/111/6
f 84/95/6 100/102/6 99/111/6
f 99/111/6 100/102/6 101/112/6
f 100/102/6 66/49/6 101/112/6
f 101/112/6 66/49/6 60/68/6
f 66/49/6 61/47/6 60/68/6
f 60/68/6 61/47/6 23/69/6
f 61/47/6 24/48/6 23/69/6
f 45/25/4 33/46/4 8/24/4
f 33/46/4 17/42/4 8/24/4
f 44/45/4 35/44/4 45/25/4
f 35/44/4 33/46/4 45/25/4
f 88/82/4 76/101/4 44/45/4
f 76/101/4 35/44/4 44/45/4
f 87/79/4 78/100/4 88/82/4
f 78/100/4 76/101/4 88/82/4
f 105/117/4 95/118/4 87/79/4
f 95/118/4 78/100/4 87/79/4
f 104/76/4 97/77/4 105/117/4
f 97/77/4 95/118/4 105/117/4
f 63/53/4 57/75/4 104/76/4
f 57/75/4 97/77/4 104/76/4
f 1/50/4 20/74/4 63/53/4
f 20/74/4 57/75/4 63/53/4
f 18/3/6 17/4/6 32/30/6
f 17/4/6 33/31/6 32/30/6
f 32/30/6 33/31/6 34/32/6
f 33/31/6 35/33/6 34/32/6
f 34/32/6 35/33/6 75/87/6
f 35/33/6 76/88/6 75/87/6
f 75/87/6 76/88/6 77/89/6
f 76/88/6 78/90/6 77/89/6
f 77/89/6 78/90/6 94/106/6
f 78/90/6 95/107/6 94/106/6
f 94/106/6 95/107/6 96/108/6
f 95/107/6 97/109/6 96/108/6
f 56/61/6 57/64/6 19/62/6
f 57/64/6 20/63/6 19/62/6
f 96/108/6 97/109/6 56/61/6
f 97/109/6 57/64/6 56/61/6
f 7/24/3 18/42/3 32/41/3
f 7/24/3 32/41/3 43/43/3
f 43/43/3 32/41/3 34/39/3
f 43/43/3 34/39/3 42/40/3
f 42/40/3 34/39/3 75/98/3
f 42/40/3 75/98/3 86/99/3
f 86/99/3 75/98/3 77/96/3
f 86/99/3 77/96/3 85/97/3
f 85/97/3 77/96/3 94/115/3
f 85/97/3 94/115/3 103/116/3
f 103/116/3 94/115/3 96/113/3
f 103/116/3 96/113/3 102/114/3
f 102/114/3 96/113/3 56/72/3
f 102/114/3 56/72/3 62/73/3
f 62/73/3 56/72/3 19/70/3
f 62/73/3 19/70/3 2/71/3
f 3/48/3 62/73/3 2/71/3
f 3/48/3 49/47/3 62/73/3
f 49/47/3 102/114/3 62/73/3
f 49/47/3 50/49/3 102/114/3
f 50/49/3 103/116/3 102/114/3
f 50/49/3 91/102/3 103/116/3
f 91/102/3 85/97/3 103/116/3
f 91/102/3 74/95/3 85/97/3
f 74/95/3 86/99/3 85/97/3
f 74/95/3 67/78/3 86/99/3
f 67/78/3 42/40/3 86/99/3
f 67/78/3 31/38/3 42/40/3
f 31/38/3 43/43/3 42/40/3
f 31/38/3 25/21/3 43/43/3
f 25/21/3 7/24/3 43/43/3
f 25/21/3 6/7/3 7/24/3
f 14/24/4 15/7/4 27/23/4
f 28/25/4 14/24/4 27/23/4
f 28/25/4 39/46/4 14/24/4
f 39/46/4 21/42/4 14/24/4
f 48/45/4 41/44/4 28/25/4
f 41/44/4 39/46/4 28/25/4
f 28/25/4 27/23/4 26/22/4
f 48/45/4 28/25/4 26/22/4
f 71/82/4 70/81/4 69/80/4
f 68/79/4 71/82/4 69/80/4
f 48/45/4 26/22/4 70/81/4
f 71/82/4 48/45/4 70/81/4
f 52/53/4 51/52/4 9/51/4
f 10/50/4 52/53/4 9/51/4
f 10/50/4 24/74/4 52/53/4
f 24/74/4 61/75/4 52/53/4
f 52/53/4 61/75/4 65/76/4
f 61/75/4 66/77/4 65/76/4
f 65/76/4 66/77/4 108/117/4
f 66/77/4 100/118/4 108/117/4
f 108/117/4 100/118/4 68/79/4
f 100/118/4 84/100/4 68/79/4
f 68/79/4 84/100/4 71/82/4
f 84/100/4 82/101/4 71/82/4
f 71/82/4 82/101/4 48/45/4
f 82/101/4 41/44/4 48/45/4
f 65/76/4 53/54/4 51/52/4
f 52/53/4 65/76/4 51/52/4
f 108/117/4 92/103/4 53/54/4
f 65/76/4 108/117/4 53/54/4
f 68/79/4 69/80/4 92/103/4
f 108/117/4 68/79/4 92/103/4
f 2/2/1 1/1/1 4/4/1
f 4/4/1 3/3/1 2/2/1
f 8/6/2 7/5/2 6/3/2
f 6/3/2 5/4/2 8/6/2
f 11/9/1 10/8/1 9/7/1
f 9/7/1 12/10/1 11/9/1
f 13/11/2 16/10/2 15/7/2
f 15/7/2 14/12/2 13/11/2
f 18/14/2 7/5/2 8/6/2
f 8/6/2 17/13/2 18/14/2
f 20/16/1 1/1/1 2/2/1
f 2/2/1 19/15/1 20/16/1
f 22/18/2 13/11/2 14/12/2
f 14/12/2 21/17/2 22/18/2
f 24/20/1 10/8/1 11/9/1
f 11/9/1 23/19/1 24/20/1
f 25/27/5 29/26/5 5/4/5
f 5/4/5 6/3/5 25/27/5
f 31/29/5 30/28/5 29/26/5
f 29/26/5 25/27/5 31/29/5
f 36/34/5 27/23/5 15/7/5
f 15/7/5 16/10/5 36/34/5
f 37/35/5 26/22/5 27/23/5
f 27/23/5 36/34/5 37/35/5
f 49/57/5 55/56/5 54/55/5
f 54/55/5 50/58/5 49/57/5
f 3/60/5 4/59/5 55/56/5
f 55/56/5 49/57/5 3/60/5
f 58/65/5 51/52/5 53/54/5
f 53/54/5 59/66/5 58/65/5
f 12/67/5 9/51/5 51/52/5
f 51/52/5 58/65/5 12/67/5
f 67/84/5 72/83/5 30/28/5
f 30/28/5 31/29/5 67/84/5
f 74/86/5 73/85/5 72/83/5
f 72/83/5 67/84/5 74/86/5
f 79/91/5 70/81/5 26/22/5
f 26/22/5 37/35/5 79/91/5
f 80/92/5 69/80/5 70/81/5
f 70/81/5 79/91/5 80/92/5
f 91/105/5 93/104/5 73/85/5
f 73/85/5 74/86/5 91/105/5
f 50/58/5 54/55/5 93/104/5
f 93/104/5 91/105/5 50/58/5
f 98/110/5 92/103/5 69/80/5
f 69/80/5 80/92/5 98/110/5
f 59/66/5 53/54/5 92/103/5
f 92/103/5 98/110/5 59/66/5
f 109/119/1 11/9/1 12/10/1
f 12/10/1 110/120/1 109/119/1
f 112/121/2 111/120/2 16/10/2
f 16/10/2 13/11/2 112/121/2
f 113/122/5 36/34/5 16/10/5
f 16/10/5 111/120/5 113/122/5
f 114/123/5 37/35/5 36/34/5
f 36/34/5 113/122/5 114/123/5
f 47/127/6 115/126/6 112/125/6
f 112/125/6 13/124/6 47/127/6
f 116/128/7 115/126/8 47/127/7
f 47/127/7 46/129/9 116/128/7
f 58/65/5 59/66/5 118/131/5
f 118/131/5 117/130/5 58/65/5
f 110/132/5 12/67/5 58/65/5
f 58/65/5 117/130/5 110/132/5
f 106/133/9 64/136/10 120/135/11
f 120/135/11 119/134/10 106/133/9
f 109/137/6 120/135/6 64/136/6
f 64/136/6 11/138/6 109/137/6
f 121/139/5 79/91/5 37/35/5
f 37/35/5 114/123/5 121/139/5
f 122/140/5 80/92/5 79/91/5
f 79/91/5 121/139/5 122/140/5
f 123/141/9 116/128/9 46/129/9
f 46/129/9 90/142/9 123/141/9
f 124/143/12 123/141/13 90/142/12
f 90/142/12 89/144/14 124/143/12
f 125/145/5 98/110/5 80/92/5
f 80/92/5 122/140/5 125/145/5
f 118/131/5 59/66/5 98/110/5
f 98/110/5 125/145/5 118/131/5
f 107/147/15 126/146/16 124/143/15
f 124/143/15 89/144/14 107/147/15
f 119/134/9 126/146/9 107/147/9
f 107/147/9 106/133/9 119/134/9
f 109/119/1 110/120/1 128/149/1
f 128/149/1 127/148/1 109/119/1
f 127/148/1 128/149/1 4/4/1
f 4/4/1 1/1/1 127/148/1
f 130/149/2 129/150/2 8/6/2
f 8/6/2 5/4/2 130/149/2
f 111/120/2 112/121/2 129/150/2
f 129/150/2 130/149/2 111/120/2
f 131/151/5 113/122/5 111/120/5
f 111/120/5 130/149/5 131/151/5
f 29/26/5 131/151/5 130/149/5
f 130/149/5 5/4/5 29/26/5
f 30/28/5 132/152/5 131/151/5
f 131/151/5 29/26/5 30/28/5
f 45/154/6 8/153/6 129/156/6
f 129/156/6 133/155/6 45/154/6
f 133/155/6 129/156/6 112/125/6
f 112/125/6 115/126/6 133/155/6
f 44/157/17 45/154/6 133/155/17
f 133/155/17 134/158/18 44/157/17
f 136/160/5 135/159/5 54/55/5
f 54/55/5 55/56/5 136/160/5
f 128/161/5 110/132/5 117/130/5
f 117/130/5 136/160/5 128/161/5
f 4/59/5 128/161/5 136/160/5
f 136/160/5 55/56/5 4/59/5
f 138/164/20 137/163/19 63/162/6
f 63/162/6 104/165/19 138/164/20
f 127/166/6 137/163/6 120/135/6
f 120/135/6 109/137/6 127/166/6
f 1/167/6 63/162/6 137/163/6
f 137/163/6 127/166/6 1/167/6
f 139/168/5 121/139/5 114/123/5
f 114/123/5 132/152/5 139/168/5
f 72/83/5 139/168/5 132/152/5
f 132/152/5 30/28/5 72/83/5
f 73/85/5 140/169/5 139/168/5
f 139/168/5 72/83/5 73/85/5
f 141/170/6 134/158/6 116/128/6
f 116/128/6 123/141/6 141/170/6
f 88/171/21 44/157/21 134/158/21
f 134/158/21 141/170/21 88/171/21
f 142/173/22 87/172/23 88/171/22
f 88/171/22 141/170/24 142/173/22
f 93/104/5 143/174/5 140/169/5
f 140/169/5 73/85/5 93/104/5
f 135/159/5 118/131/5 125/145/5
f 125/145/5 143/174/5 135/159/5
f 54/55/5 135/159/5 143/174/5
f 143/174/5 93/104/5 54/55/5
f 105/175/25 87/172/23 142/173/25
f 142/173/25 144/176/26 105/175/25
f 138/164/6 144/176/6 126/146/6
f 126/146/6 119/134/6 138/164/6
f 104/165/21 105/175/21 144/176/21
f 144/176/21 138/164/21 104/165/21
f 113/21/3 115/43/3 116/177/3
f 116/177/3 114/38/3 113/21/3
f 121/78/3 123/178/3 124/179/3
f 124/179/3 122/95/3 121/78/3
f 122/95/3 124/179/3 126/180/3
f 126/180/3 125/102/3 122/95/3
f 118/49/3 119/181/3 120/73/3
f 120/73/3 117/47/3 118/49/3
f 137/150/2 136/149/2 117/120/2
f 117/120/2 120/121/2 137/150/2
f 119/182/1 118/120/1 135/149/1
f 135/149/1 138/183/1 119/182/1
f 123/182/1 121/120/1 139/149/1
f 139/149/1 141/183/1 123/182/1
f 115/119/1 113/120/1 131/149/1
f 131/149/1 133/148/1 115/119/1
f 138/184/4 135/54/4 136/52/4
f 136/52/4 137/53/4 138/184/4
f 142/185/4 140/80/4 143/103/4
f 143/103/4 144/186/4 142/185/4
f 141/187/4 139/81/4 140/80/4
f 140/80/4 142/185/4 141/187/4
f 133/25/4 131/23/4 132/22/4
f 132/22/4 134/188/4 133/25/4
f 134/190/2 132/149/2 114/120/2
f 114/120/2 116/189/2 134/190/2
f 144/190/2 143/149/2 125/120/2
f 125/120/2 126/189/2 144/190/2

